<svg width="48" height="48" viewBox="0 0 48 48" fill="none" xmlns="http://www.w3.org/2000/svg">
<rect width="48" height="48" rx="7.2" fill="#FF3465"/>
<path d="M24.1863 36.5703C22.452 36.5703 20.8593 36.2742 19.4072 35.683C17.9555 35.0915 16.6969 34.2661 15.6327 33.2074C14.5673 32.1487 13.7376 30.8948 13.1424 29.4466C12.5476 27.9984 12.25 26.403 12.25 24.6587C12.25 22.8838 12.5825 21.2253 13.2485 19.684C13.9141 18.1423 14.8351 16.8037 16.012 15.6667C17.1883 14.5304 18.5667 13.6351 20.1456 12.9807C21.7248 12.3267 23.4271 12 25.2546 12C26.6166 12 27.8941 12.1946 29.0864 12.5835C30.2777 12.9733 31.3156 13.5107 32.1978 14.1953C33.0803 14.8803 33.7774 15.698 34.288 16.6474C34.7989 17.5982 35.0542 18.6021 35.0542 19.6604C35.0542 20.8444 34.6829 21.8326 33.9401 22.6267C33.1966 23.4212 32.283 23.8178 31.1996 23.8178C30.0846 23.8178 29.1559 23.429 28.4131 22.6503C27.6696 21.8719 27.2983 20.8912 27.2983 19.7072C27.2983 19.3653 27.3364 19.038 27.4143 18.7264C27.4911 18.4152 27.6074 17.9635 27.7621 17.3714C27.9172 16.8427 28.0181 16.4454 28.0645 16.1806C28.1107 15.9164 28.134 15.6281 28.134 15.3162C28.134 14.5069 27.872 13.8448 27.3499 13.3312C26.8268 12.8174 26.1675 12.5603 25.3734 12.5603C24.6703 12.5603 24.0206 12.7874 23.4258 13.2401C22.83 13.6924 22.3104 14.3094 21.8677 15.0894C21.4243 15.8707 21.0729 16.7985 20.8131 17.8762C20.5537 18.9536 20.4239 20.1009 20.4239 21.318C20.4239 24.1597 21.136 26.4156 22.5606 28.0857C23.9844 29.7562 25.9048 30.591 28.3198 30.591C29.6822 30.591 30.9206 30.3342 32.0357 29.8207C33.1498 29.3068 34.2335 28.5052 35.2868 27.415L35.8438 27.6949C33.2116 33.6124 29.3257 36.5703 24.1863 36.5703Z" fill="white"/>
</svg>
