<svg width="48" height="48" viewBox="0 0 48 48" fill="none" xmlns="http://www.w3.org/2000/svg">
<rect width="48" height="48" rx="7.2" fill="#25C16F"/>
<path fill-rule="evenodd" clip-rule="evenodd" d="M29.1071 27.7816C29.1158 28.6992 28.4926 29.4984 27.612 29.6992V29.8472C27.6042 31.148 26.5694 32.2 25.2899 32.208H23.4903C23.3251 32.2008 23.1929 32.0664 23.1858 31.8984C23.1858 31.7504 23.3455 31.6768 23.4903 31.6768H25.2758C26.2633 31.6616 27.0596 30.8512 27.0754 29.8472V29.7736H25.5803V25.1256H27.845V23.8272C27.7135 21.4816 25.8722 19.6096 23.5659 19.4768C21.0604 19.3328 18.9154 21.2808 18.7737 23.8272V25.1256H21.0085V29.7736H19.3537C18.2898 29.7496 17.4321 28.8784 17.4093 27.7968V23.7528C17.4093 20.4688 20.028 17.8072 23.2582 17.8072C26.567 17.8072 29.1795 20.4776 29.1071 23.8272V27.7816ZM32.8519 12.0224H23.2582C16.2195 12.0968 10.5295 17.8808 10.5295 25.052V25.0664C10.5374 32.2136 16.2431 38 23.2724 37.992H23.3455C30.3748 37.992 36.0742 32.1984 36.0742 25.052V15.2984V15.2392C36.0577 13.4464 34.6153 12.0064 32.8519 12.0224Z" fill="white"/>
</svg>
