<svg width="48" height="48" viewBox="0 0 48 48" fill="none" xmlns="http://www.w3.org/2000/svg">
<rect width="48" height="48" rx="12" fill="#E4E5E8"/>
<path d="M27.6796 9L35.3705 16.6909L31.5251 17.3901L27.6796 16.6909L26.9805 12.8454L27.6796 9Z" fill="#188038"/>
<path d="M27.6826 16.6909V9H15.0975C13.9386 9 13 9.93864 13 11.0975V37.666C13 38.8249 13.9386 39.7635 15.0975 39.7635H33.276C34.4348 39.7635 35.3735 38.8249 35.3735 37.666V16.6909H27.6826Z" fill="#34A853"/>
<path d="M17.1953 20.8848V31.0227H31.1787V20.8848H17.1953ZM23.3131 29.2748H18.9432V26.8277H23.3131V29.2748ZM23.3131 25.0798H18.9432V22.6327H23.3131V25.0798ZM29.4308 29.2748H25.061V26.8277H29.4308V29.2748ZM29.4308 25.0798H25.061V22.6327H29.4308V25.0798Z" fill="white"/>
</svg>
