<svg width="48" height="48" viewBox="0 0 48 48" fill="none" xmlns="http://www.w3.org/2000/svg">
<rect width="48" height="48" rx="7.2" fill="#FF7A59"/>
<path fill-rule="evenodd" clip-rule="evenodd" d="M31.5775 16.0123V19.319H31.5723C34.566 19.7818 36.9575 22.0552 37.571 25.0217C38.1845 27.9882 36.891 31.0237 34.3264 32.6359C31.7618 34.2482 28.4656 34.098 26.0582 32.2592L23.3664 34.9509C23.4361 35.1693 23.4731 35.3968 23.4764 35.626C23.4764 36.9305 22.4189 37.988 21.1144 37.988C19.8099 37.988 18.7525 36.9305 18.7525 35.626C18.7525 34.3216 19.8099 33.2641 21.1144 33.2641C21.3436 33.2674 21.5711 33.3044 21.7895 33.374L24.5105 30.653C22.795 28.2124 22.7506 24.9698 24.3988 22.4832L15.4577 15.5227C14.258 16.2113 12.7391 15.9572 11.8288 14.9157C10.9185 13.8742 10.8701 12.3349 11.7132 11.2382C12.5562 10.1415 14.0562 9.79249 15.2967 10.4043C16.5373 11.0162 17.1735 12.4187 16.8165 13.7551L25.9105 20.8376C26.9025 20.0398 28.0877 19.5183 29.3461 19.3259V16.0123C28.4527 15.595 27.88 14.6999 27.8756 13.7139V13.6366C27.8794 12.2312 29.0178 11.0929 30.4231 11.0891H30.5004C31.9058 11.0929 33.0441 12.2312 33.0479 13.6366V13.7139C33.0435 14.6999 32.4709 15.595 31.5775 16.0123ZM26.7419 26.4828C26.7384 28.5387 28.4016 30.2085 30.4575 30.2133L30.4661 30.215C32.5229 30.215 34.1902 28.5476 34.1902 26.4908C34.1912 24.4349 32.526 22.7672 30.4701 22.7649C28.4142 22.7627 26.7454 24.4269 26.7419 26.4828Z" fill="white"/>
</svg>
