<svg width="48" height="48" viewBox="0 0 48 48" fill="none" xmlns="http://www.w3.org/2000/svg">
<rect width="48" height="48" rx="7.2" fill="#37474F"/>
<path fill-rule="evenodd" clip-rule="evenodd" d="M25.2831 26.3574C22.9571 26.3574 21.8964 24.0966 21.8964 21.9806C21.8964 18.6622 23.6716 17.4798 25.3445 17.4798C27.3841 17.4798 28.7714 19.2638 28.7714 21.9398C28.7509 25.0094 26.997 26.3574 25.2831 26.3574ZM26.1605 13.6014C23.7322 13.6014 22.3244 14.7214 21.6516 15.4678C21.5698 14.8046 21.141 13.9542 19.468 13.9542H15.8169V17.8118H17.3057C17.5504 17.8118 17.6322 17.895 17.6322 18.1438V35.795H21.957V29.199V28.7014C22.6305 29.3238 23.9163 30.195 25.9362 30.195C30.1587 30.195 33.1174 26.7926 33.1174 21.8982C33.1378 16.9406 30.3223 13.6014 26.1605 13.6014Z" fill="white"/>
</svg>
