<svg width="48" height="48" viewBox="0 0 48 48" fill="none" xmlns="http://www.w3.org/2000/svg">
<rect width="48" height="48" rx="7.2" fill="#0F9BD7"/>
<path fill-rule="evenodd" clip-rule="evenodd" d="M34.1601 15.5527C33.1316 15.5527 32.1551 15.7759 31.2722 16.1775C30.2563 14.3375 28.3497 13.0983 26.1629 13.0983C24.5184 13.0983 23.0311 13.7999 21.9633 14.9311C20.7885 13.3695 18.9346 12.3607 16.8494 12.3607C13.2974 12.3607 10.4174 15.2855 10.4174 18.8911C10.4174 19.8151 10.6062 20.6927 10.9462 21.4887C9.2937 22.4703 8.18262 24.3055 8.18262 26.4071C8.18262 29.5431 10.6574 32.0855 13.7097 32.0855C14.0992 32.0855 14.4793 32.0439 14.846 31.9647C15.684 34.2783 17.87 35.9271 20.4336 35.9271C22.8958 35.9271 25.0086 34.4071 25.9143 32.2383C26.6052 32.5807 27.3795 32.7727 28.1978 32.7727C30.1548 32.7727 31.8592 31.6767 32.7531 30.0551C33.2079 30.1487 33.6785 30.1983 34.1601 30.1983C38.1031 30.1983 41.2995 26.9191 41.2995 22.8751C41.2995 18.8319 38.1031 15.5527 34.1601 15.5527Z" fill="white"/>
</svg>
